<svg xmlns="http://www.w3.org/2000/svg" version="1.1" xmlns:xlink="http://www.w3.org/1999/xlink" xmlns:svgjs="http://svgjs.com/svgjs" width="1440" height="560" preserveAspectRatio="none" viewBox="0 0 1440 560">
    <g mask="url(&quot;#SvgjsMask1012&quot;)" fill="none">
        <rect width="1440" height="560" x="0" y="0" fill="rgba(237, 245, 254, 1)"></rect>
        <path d="M-85.85 364.99L-85.85 364.99" stroke="rgba(186, 223, 242, 1)" stroke-width="1.5"></path>
        <path d="M-85.85 364.99L-81.23 488.33" stroke="rgba(186, 223, 242, 1)" stroke-width="1.5"></path>
        <path d="M-85.85 364.99L56.35 396.89" stroke="rgba(186, 223, 242, 1)" stroke-width="1.5"></path>
        <path d="M-81.23 488.33L-81.23 488.33" stroke="rgba(186, 223, 242, 1)" stroke-width="1.5"></path>
        <path d="M-81.23 488.33L56.35 396.89" stroke="rgba(186, 223, 242, 1)" stroke-width="1.5"></path>
        <path d="M-81.23 488.33L105.73 508.02" stroke="rgba(186, 223, 242, 1)" stroke-width="1.5"></path>
        <path d="M-79.35 699.66L-79.35 699.66" stroke="rgba(186, 223, 242, 1)" stroke-width="1.5"></path>
        <path d="M-79.35 699.66L109.79 699.7" stroke="rgba(186, 223, 242, 1)" stroke-width="1.5"></path>
        <path d="M-79.35 699.66L-81.23 488.33" stroke="rgba(186, 223, 242, 1)" stroke-width="1.5"></path>
        <path d="M-79.35 699.66L105.73 508.02" stroke="rgba(186, 223, 242, 1)" stroke-width="1.5"></path>
        <path d="M-79.35 699.66L56.35 396.89" stroke="rgba(186, 223, 242, 1)" stroke-width="1.5"></path>
        <path d="M-79.35 699.66L-85.85 364.99" stroke="rgba(186, 223, 242, 1)" stroke-width="1.5"></path>
        <path d="M-79.35 699.66L199.39 495.49" stroke="rgba(186, 223, 242, 1)" stroke-width="1.5"></path>
        <path d="M56.35 396.89L56.35 396.89" stroke="rgba(186, 223, 242, 1)" stroke-width="1.5"></path>
        <path d="M56.35 396.89L105.73 508.02" stroke="rgba(186, 223, 242, 1)" stroke-width="1.5"></path>
        <path d="M56.35 396.89L218.27 411.6" stroke="rgba(186, 223, 242, 1)" stroke-width="1.5"></path>
        <path d="M105.73 508.02L105.73 508.02" stroke="rgba(186, 223, 242, 1)" stroke-width="1.5"></path>
        <path d="M105.73 508.02L199.39 495.49" stroke="rgba(186, 223, 242, 1)" stroke-width="1.5"></path>
        <path d="M105.73 508.02L218.27 411.6" stroke="rgba(186, 223, 242, 1)" stroke-width="1.5"></path>
        <path d="M105.73 508.02L109.79 699.7" stroke="rgba(186, 223, 242, 1)" stroke-width="1.5"></path>
        <path d="M105.73 508.02L-85.85 364.99" stroke="rgba(186, 223, 242, 1)" stroke-width="1.5"></path>
        <path d="M109.79 699.7L109.79 699.7" stroke="rgba(186, 223, 242, 1)" stroke-width="1.5"></path>
        <path d="M218.27 411.6L218.27 411.6" stroke="rgba(186, 223, 242, 1)" stroke-width="1.5"></path>
        <path d="M218.27 411.6L199.39 495.49" stroke="rgba(186, 223, 242, 1)" stroke-width="1.5"></path>
        <path d="M218.27 411.6L389.43 385.1" stroke="rgba(186, 223, 242, 1)" stroke-width="1.5"></path>
        <path d="M218.27 411.6L363.96 542.35" stroke="rgba(186, 223, 242, 1)" stroke-width="1.5"></path>
        <path d="M218.27 411.6L494.59 388.36" stroke="rgba(186, 223, 242, 1)" stroke-width="1.5"></path>
        <path d="M199.39 495.49L199.39 495.49" stroke="rgba(186, 223, 242, 1)" stroke-width="1.5"></path>
        <path d="M199.39 495.49L363.96 542.35" stroke="rgba(186, 223, 242, 1)" stroke-width="1.5"></path>
        <path d="M199.39 495.49L56.35 396.89" stroke="rgba(186, 223, 242, 1)" stroke-width="1.5"></path>
        <path d="M389.43 385.1L389.43 385.1" stroke="rgba(186, 223, 242, 1)" stroke-width="1.5"></path>
        <path d="M389.43 385.1L494.59 388.36" stroke="rgba(186, 223, 242, 1)" stroke-width="1.5"></path>
        <path d="M389.43 385.1L363.96 542.35" stroke="rgba(186, 223, 242, 1)" stroke-width="1.5"></path>
        <path d="M389.43 385.1L199.39 495.49" stroke="rgba(186, 223, 242, 1)" stroke-width="1.5"></path>
        <path d="M389.43 385.1L561.13 548.18" stroke="rgba(186, 223, 242, 1)" stroke-width="1.5"></path>
        <path d="M363.96 542.35L363.96 542.35" stroke="rgba(186, 223, 242, 1)" stroke-width="1.5"></path>
        <path d="M363.96 542.35L361.2 675.89" stroke="rgba(186, 223, 242, 1)" stroke-width="1.5"></path>
        <path d="M361.2 675.89L361.2 675.89" stroke="rgba(186, 223, 242, 1)" stroke-width="1.5"></path>
        <path d="M361.2 675.89L524.54 670.23" stroke="rgba(186, 223, 242, 1)" stroke-width="1.5"></path>
        <path d="M494.59 388.36L494.59 388.36" stroke="rgba(186, 223, 242, 1)" stroke-width="1.5"></path>
        <path d="M494.59 388.36L561.13 548.18" stroke="rgba(186, 223, 242, 1)" stroke-width="1.5"></path>
        <path d="M494.59 388.36L683.5 390.67" stroke="rgba(186, 223, 242, 1)" stroke-width="1.5"></path>
        <path d="M494.59 388.36L648.9 513.41" stroke="rgba(186, 223, 242, 1)" stroke-width="1.5"></path>
        <path d="M494.59 388.36L363.96 542.35" stroke="rgba(186, 223, 242, 1)" stroke-width="1.5"></path>
        <path d="M561.13 548.18L561.13 548.18" stroke="rgba(186, 223, 242, 1)" stroke-width="1.5"></path>
        <path d="M561.13 548.18L648.9 513.41" stroke="rgba(186, 223, 242, 1)" stroke-width="1.5"></path>
        <path d="M561.13 548.18L524.54 670.23" stroke="rgba(186, 223, 242, 1)" stroke-width="1.5"></path>
        <path d="M524.54 670.23L524.54 670.23" stroke="rgba(186, 223, 242, 1)" stroke-width="1.5"></path>
        <path d="M524.54 670.23L671.47 688.24" stroke="rgba(186, 223, 242, 1)" stroke-width="1.5"></path>
        <path d="M524.54 670.23L648.9 513.41" stroke="rgba(186, 223, 242, 1)" stroke-width="1.5"></path>
        <path d="M524.54 670.23L363.96 542.35" stroke="rgba(186, 223, 242, 1)" stroke-width="1.5"></path>
        <path d="M524.54 670.23L494.59 388.36" stroke="rgba(186, 223, 242, 1)" stroke-width="1.5"></path>
        <path d="M694.33 217.1L694.33 217.1" stroke="rgba(186, 223, 242, 1)" stroke-width="1.5"></path>
        <path d="M694.33 217.1L853.05 255.6" stroke="rgba(186, 223, 242, 1)" stroke-width="1.5"></path>
        <path d="M694.33 217.1L683.5 390.67" stroke="rgba(186, 223, 242, 1)" stroke-width="1.5"></path>
        <path d="M694.33 217.1L855.11 92.79" stroke="rgba(186, 223, 242, 1)" stroke-width="1.5"></path>
        <path d="M694.33 217.1L797.76 393.26" stroke="rgba(186, 223, 242, 1)" stroke-width="1.5"></path>
        <path d="M694.33 217.1L494.59 388.36" stroke="rgba(186, 223, 242, 1)" stroke-width="1.5"></path>
        <path d="M683.5 390.67L683.5 390.67" stroke="rgba(186, 223, 242, 1)" stroke-width="1.5"></path>
        <path d="M683.5 390.67L797.76 393.26" stroke="rgba(186, 223, 242, 1)" stroke-width="1.5"></path>
        <path d="M683.5 390.67L648.9 513.41" stroke="rgba(186, 223, 242, 1)" stroke-width="1.5"></path>
        <path d="M648.9 513.41L648.9 513.41" stroke="rgba(186, 223, 242, 1)" stroke-width="1.5"></path>
        <path d="M648.9 513.41L671.47 688.24" stroke="rgba(186, 223, 242, 1)" stroke-width="1.5"></path>
        <path d="M648.9 513.41L797.76 393.26" stroke="rgba(186, 223, 242, 1)" stroke-width="1.5"></path>
        <path d="M671.47 688.24L671.47 688.24" stroke="rgba(186, 223, 242, 1)" stroke-width="1.5"></path>
        <path d="M671.47 688.24L829.09 701.78" stroke="rgba(186, 223, 242, 1)" stroke-width="1.5"></path>
        <path d="M855.11 92.79L855.11 92.79" stroke="rgba(186, 223, 242, 1)" stroke-width="1.5"></path>
        <path d="M855.11 92.79L984.66 47.96" stroke="rgba(186, 223, 242, 1)" stroke-width="1.5"></path>
        <path d="M855.11 92.79L853.05 255.6" stroke="rgba(186, 223, 242, 1)" stroke-width="1.5"></path>
        <path d="M855.11 92.79L978.98 251.62" stroke="rgba(186, 223, 242, 1)" stroke-width="1.5"></path>
        <path d="M853.05 255.6L853.05 255.6" stroke="rgba(186, 223, 242, 1)" stroke-width="1.5"></path>
        <path d="M853.05 255.6L978.98 251.62" stroke="rgba(186, 223, 242, 1)" stroke-width="1.5"></path>
        <path d="M853.05 255.6L797.76 393.26" stroke="rgba(186, 223, 242, 1)" stroke-width="1.5"></path>
        <path d="M797.76 393.26L797.76 393.26" stroke="rgba(186, 223, 242, 1)" stroke-width="1.5"></path>
        <path d="M797.76 393.26L849.38 533.69" stroke="rgba(186, 223, 242, 1)" stroke-width="1.5"></path>
        <path d="M797.76 393.26L963.66 389.16" stroke="rgba(186, 223, 242, 1)" stroke-width="1.5"></path>
        <path d="M849.38 533.69L849.38 533.69" stroke="rgba(186, 223, 242, 1)" stroke-width="1.5"></path>
        <path d="M849.38 533.69L990.97 551.49" stroke="rgba(186, 223, 242, 1)" stroke-width="1.5"></path>
        <path d="M849.38 533.69L945.12 655.04" stroke="rgba(186, 223, 242, 1)" stroke-width="1.5"></path>
        <path d="M849.38 533.69L829.09 701.78" stroke="rgba(186, 223, 242, 1)" stroke-width="1.5"></path>
        <path d="M829.09 701.78L829.09 701.78" stroke="rgba(186, 223, 242, 1)" stroke-width="1.5"></path>
        <path d="M829.09 701.78L945.12 655.04" stroke="rgba(186, 223, 242, 1)" stroke-width="1.5"></path>
        <path d="M829.09 701.78L990.97 551.49" stroke="rgba(186, 223, 242, 1)" stroke-width="1.5"></path>
        <path d="M829.09 701.78L648.9 513.41" stroke="rgba(186, 223, 242, 1)" stroke-width="1.5"></path>
        <path d="M829.09 701.78L524.54 670.23" stroke="rgba(186, 223, 242, 1)" stroke-width="1.5"></path>
        <path d="M979.7 -70.06L979.7 -70.06" stroke="rgba(186, 223, 242, 1)" stroke-width="1.5"></path>
        <path d="M979.7 -70.06L984.66 47.96" stroke="rgba(186, 223, 242, 1)" stroke-width="1.5"></path>
        <path d="M979.7 -70.06L1117.57 -84.26" stroke="rgba(186, 223, 242, 1)" stroke-width="1.5"></path>
        <path d="M979.7 -70.06L855.11 92.79" stroke="rgba(186, 223, 242, 1)" stroke-width="1.5"></path>
        <path d="M979.7 -70.06L1100.4 100.31" stroke="rgba(186, 223, 242, 1)" stroke-width="1.5"></path>
        <path d="M979.7 -70.06L1254.69 -75.3" stroke="rgba(186, 223, 242, 1)" stroke-width="1.5"></path>
        <path d="M979.7 -70.06L978.98 251.62" stroke="rgba(186, 223, 242, 1)" stroke-width="1.5"></path>
        <path d="M984.66 47.96L984.66 47.96" stroke="rgba(186, 223, 242, 1)" stroke-width="1.5"></path>
        <path d="M984.66 47.96L1100.4 100.31" stroke="rgba(186, 223, 242, 1)" stroke-width="1.5"></path>
        <path d="M978.98 251.62L978.98 251.62" stroke="rgba(186, 223, 242, 1)" stroke-width="1.5"></path>
        <path d="M963.66 389.16L963.66 389.16" stroke="rgba(186, 223, 242, 1)" stroke-width="1.5"></path>
        <path d="M963.66 389.16L978.98 251.62" stroke="rgba(186, 223, 242, 1)" stroke-width="1.5"></path>
        <path d="M963.66 389.16L1108.98 343.3" stroke="rgba(186, 223, 242, 1)" stroke-width="1.5"></path>
        <path d="M963.66 389.16L990.97 551.49" stroke="rgba(186, 223, 242, 1)" stroke-width="1.5"></path>
        <path d="M990.97 551.49L990.97 551.49" stroke="rgba(186, 223, 242, 1)" stroke-width="1.5"></path>
        <path d="M990.97 551.49L945.12 655.04" stroke="rgba(186, 223, 242, 1)" stroke-width="1.5"></path>
        <path d="M990.97 551.49L1127.91 525.46" stroke="rgba(186, 223, 242, 1)" stroke-width="1.5"></path>
        <path d="M945.12 655.04L945.12 655.04" stroke="rgba(186, 223, 242, 1)" stroke-width="1.5"></path>
        <path d="M1117.57 -84.26L1117.57 -84.26" stroke="rgba(186, 223, 242, 1)" stroke-width="1.5"></path>
        <path d="M1117.57 -84.26L1254.69 -75.3" stroke="rgba(186, 223, 242, 1)" stroke-width="1.5"></path>
        <path d="M1117.57 -84.26L1100.4 100.31" stroke="rgba(186, 223, 242, 1)" stroke-width="1.5"></path>
        <path d="M1117.57 -84.26L984.66 47.96" stroke="rgba(186, 223, 242, 1)" stroke-width="1.5"></path>
        <path d="M1100.4 100.31L1100.4 100.31" stroke="rgba(186, 223, 242, 1)" stroke-width="1.5"></path>
        <path d="M1100.4 100.31L1143.03 232.66" stroke="rgba(186, 223, 242, 1)" stroke-width="1.5"></path>
        <path d="M1100.4 100.31L1266.25 95.8" stroke="rgba(186, 223, 242, 1)" stroke-width="1.5"></path>
        <path d="M1143.03 232.66L1143.03 232.66" stroke="rgba(186, 223, 242, 1)" stroke-width="1.5"></path>
        <path d="M1143.03 232.66L1108.98 343.3" stroke="rgba(186, 223, 242, 1)" stroke-width="1.5"></path>
        <path d="M1143.03 232.66L1252.34 342.13" stroke="rgba(186, 223, 242, 1)" stroke-width="1.5"></path>
        <path d="M1143.03 232.66L1302.36 209.67" stroke="rgba(186, 223, 242, 1)" stroke-width="1.5"></path>
        <path d="M1143.03 232.66L978.98 251.62" stroke="rgba(186, 223, 242, 1)" stroke-width="1.5"></path>
        <path d="M1143.03 232.66L1266.25 95.8" stroke="rgba(186, 223, 242, 1)" stroke-width="1.5"></path>
        <path d="M1108.98 343.3L1108.98 343.3" stroke="rgba(186, 223, 242, 1)" stroke-width="1.5"></path>
        <path d="M1108.98 343.3L1252.34 342.13" stroke="rgba(186, 223, 242, 1)" stroke-width="1.5"></path>
        <path d="M1127.91 525.46L1127.91 525.46" stroke="rgba(186, 223, 242, 1)" stroke-width="1.5"></path>
        <path d="M1127.91 525.46L1137.3 669.5" stroke="rgba(186, 223, 242, 1)" stroke-width="1.5"></path>
        <path d="M1127.91 525.46L1274.48 519.92" stroke="rgba(186, 223, 242, 1)" stroke-width="1.5"></path>
        <path d="M1127.91 525.46L1248.03 656.81" stroke="rgba(186, 223, 242, 1)" stroke-width="1.5"></path>
        <path d="M1127.91 525.46L1108.98 343.3" stroke="rgba(186, 223, 242, 1)" stroke-width="1.5"></path>
        <path d="M1127.91 525.46L963.66 389.16" stroke="rgba(186, 223, 242, 1)" stroke-width="1.5"></path>
        <path d="M1137.3 669.5L1137.3 669.5" stroke="rgba(186, 223, 242, 1)" stroke-width="1.5"></path>
        <path d="M1137.3 669.5L1248.03 656.81" stroke="rgba(186, 223, 242, 1)" stroke-width="1.5"></path>
        <path d="M1137.3 669.5L990.97 551.49" stroke="rgba(186, 223, 242, 1)" stroke-width="1.5"></path>
        <path d="M1137.3 669.5L945.12 655.04" stroke="rgba(186, 223, 242, 1)" stroke-width="1.5"></path>
        <path d="M1137.3 669.5L1274.48 519.92" stroke="rgba(186, 223, 242, 1)" stroke-width="1.5"></path>
        <path d="M1254.69 -75.3L1254.69 -75.3" stroke="rgba(186, 223, 242, 1)" stroke-width="1.5"></path>
        <path d="M1254.69 -75.3L1266.25 95.8" stroke="rgba(186, 223, 242, 1)" stroke-width="1.5"></path>
        <path d="M1254.69 -75.3L1426.29 -46.07" stroke="rgba(186, 223, 242, 1)" stroke-width="1.5"></path>
        <path d="M1266.25 95.8L1266.25 95.8" stroke="rgba(186, 223, 242, 1)" stroke-width="1.5"></path>
        <path d="M1266.25 95.8L1302.36 209.67" stroke="rgba(186, 223, 242, 1)" stroke-width="1.5"></path>
        <path d="M1266.25 95.8L1405.6 99.49" stroke="rgba(186, 223, 242, 1)" stroke-width="1.5"></path>
        <path d="M1302.36 209.67L1302.36 209.67" stroke="rgba(186, 223, 242, 1)" stroke-width="1.5"></path>
        <path d="M1302.36 209.67L1252.34 342.13" stroke="rgba(186, 223, 242, 1)" stroke-width="1.5"></path>
        <path d="M1302.36 209.67L1405.6 99.49" stroke="rgba(186, 223, 242, 1)" stroke-width="1.5"></path>
        <path d="M1252.34 342.13L1252.34 342.13" stroke="rgba(186, 223, 242, 1)" stroke-width="1.5"></path>
        <path d="M1252.34 342.13L1274.48 519.92" stroke="rgba(186, 223, 242, 1)" stroke-width="1.5"></path>
        <path d="M1274.48 519.92L1274.48 519.92" stroke="rgba(186, 223, 242, 1)" stroke-width="1.5"></path>
        <path d="M1274.48 519.92L1248.03 656.81" stroke="rgba(186, 223, 242, 1)" stroke-width="1.5"></path>
        <path d="M1274.48 519.92L1452.99 386.07" stroke="rgba(186, 223, 242, 1)" stroke-width="1.5"></path>
        <path d="M1248.03 656.81L1248.03 656.81" stroke="rgba(186, 223, 242, 1)" stroke-width="1.5"></path>
        <path d="M1248.03 656.81L1442.54 686.25" stroke="rgba(186, 223, 242, 1)" stroke-width="1.5"></path>
        <path d="M1426.29 -46.07L1426.29 -46.07" stroke="rgba(186, 223, 242, 1)" stroke-width="1.5"></path>
        <path d="M1426.29 -46.07L1405.6 99.49" stroke="rgba(186, 223, 242, 1)" stroke-width="1.5"></path>
        <path d="M1426.29 -46.07L1580.57 -81.53" stroke="rgba(186, 223, 242, 1)" stroke-width="1.5"></path>
        <path d="M1426.29 -46.07L1556.64 99.85" stroke="rgba(186, 223, 242, 1)" stroke-width="1.5"></path>
        <path d="M1426.29 -46.07L1266.25 95.8" stroke="rgba(186, 223, 242, 1)" stroke-width="1.5"></path>
        <path d="M1426.29 -46.07L1302.36 209.67" stroke="rgba(186, 223, 242, 1)" stroke-width="1.5"></path>
        <path d="M1405.6 99.49L1405.6 99.49" stroke="rgba(186, 223, 242, 1)" stroke-width="1.5"></path>
        <path d="M1450.2 251.89L1450.2 251.89" stroke="rgba(186, 223, 242, 1)" stroke-width="1.5"></path>
        <path d="M1450.2 251.89L1546.09 338.23" stroke="rgba(186, 223, 242, 1)" stroke-width="1.5"></path>
        <path d="M1450.2 251.89L1452.99 386.07" stroke="rgba(186, 223, 242, 1)" stroke-width="1.5"></path>
        <path d="M1450.2 251.89L1589.67 204.15" stroke="rgba(186, 223, 242, 1)" stroke-width="1.5"></path>
        <path d="M1450.2 251.89L1302.36 209.67" stroke="rgba(186, 223, 242, 1)" stroke-width="1.5"></path>
        <path d="M1452.99 386.07L1452.99 386.07" stroke="rgba(186, 223, 242, 1)" stroke-width="1.5"></path>
        <path d="M1452.99 386.07L1546.09 338.23" stroke="rgba(186, 223, 242, 1)" stroke-width="1.5"></path>
        <path d="M1452.99 386.07L1545.01 488.58" stroke="rgba(186, 223, 242, 1)" stroke-width="1.5"></path>
        <path d="M1452.99 386.07L1252.34 342.13" stroke="rgba(186, 223, 242, 1)" stroke-width="1.5"></path>
        <path d="M1442.54 686.25L1442.54 686.25" stroke="rgba(186, 223, 242, 1)" stroke-width="1.5"></path>
        <path d="M1442.54 686.25L1564.85 644.34" stroke="rgba(186, 223, 242, 1)" stroke-width="1.5"></path>
        <path d="M1442.54 686.25L1545.01 488.58" stroke="rgba(186, 223, 242, 1)" stroke-width="1.5"></path>
        <path d="M1442.54 686.25L1274.48 519.92" stroke="rgba(186, 223, 242, 1)" stroke-width="1.5"></path>
        <path d="M1442.54 686.25L1452.99 386.07" stroke="rgba(186, 223, 242, 1)" stroke-width="1.5"></path>
        <path d="M1580.57 -81.53L1580.57 -81.53" stroke="rgba(186, 223, 242, 1)" stroke-width="1.5"></path>
        <path d="M1556.64 99.85L1556.64 99.85" stroke="rgba(186, 223, 242, 1)" stroke-width="1.5"></path>
        <path d="M1556.64 99.85L1589.67 204.15" stroke="rgba(186, 223, 242, 1)" stroke-width="1.5"></path>
        <path d="M1556.64 99.85L1405.6 99.49" stroke="rgba(186, 223, 242, 1)" stroke-width="1.5"></path>
        <path d="M1556.64 99.85L1580.57 -81.53" stroke="rgba(186, 223, 242, 1)" stroke-width="1.5"></path>
        <path d="M1589.67 204.15L1589.67 204.15" stroke="rgba(186, 223, 242, 1)" stroke-width="1.5"></path>
        <path d="M1589.67 204.15L1546.09 338.23" stroke="rgba(186, 223, 242, 1)" stroke-width="1.5"></path>
        <path d="M1546.09 338.23L1546.09 338.23" stroke="rgba(186, 223, 242, 1)" stroke-width="1.5"></path>
        <path d="M1545.01 488.58L1545.01 488.58" stroke="rgba(186, 223, 242, 1)" stroke-width="1.5"></path>
        <path d="M1545.01 488.58L1546.09 338.23" stroke="rgba(186, 223, 242, 1)" stroke-width="1.5"></path>
        <path d="M1545.01 488.58L1564.85 644.34" stroke="rgba(186, 223, 242, 1)" stroke-width="1.5"></path>
        <path d="M1564.85 644.34L1564.85 644.34" stroke="rgba(186, 223, 242, 1)" stroke-width="1.5"></path>
        <path d="M1564.85 644.34L1452.99 386.07" stroke="rgba(186, 223, 242, 1)" stroke-width="1.5"></path>
        <path d="M1564.85 644.34L1546.09 338.23" stroke="rgba(186, 223, 242, 1)" stroke-width="1.5"></path>
        <path d="M1564.85 644.34L1274.48 519.92" stroke="rgba(186, 223, 242, 1)" stroke-width="1.5"></path>
        <circle r="5" cx="-85.85" cy="364.99" fill="rgba(186, 223, 242, 1)"></circle>
        <circle r="5" cx="-81.23" cy="488.33" fill="rgba(186, 223, 242, 1)"></circle>
        <circle r="5" cx="-79.35" cy="699.66" fill="rgba(186, 223, 242, 1)"></circle>
        <circle r="5" cx="56.35" cy="396.89" fill="rgba(186, 223, 242, 1)"></circle>
        <circle r="5" cx="105.73" cy="508.02" fill="rgba(186, 223, 242, 1)"></circle>
        <circle r="5" cx="109.79" cy="699.7" fill="rgba(186, 223, 242, 1)"></circle>
        <circle r="5" cx="218.27" cy="411.6" fill="rgba(186, 223, 242, 1)"></circle>
        <circle r="5" cx="199.39" cy="495.49" fill="rgba(186, 223, 242, 1)"></circle>
        <circle r="5" cx="389.43" cy="385.1" fill="rgba(186, 223, 242, 1)"></circle>
        <circle r="5" cx="363.96" cy="542.35" fill="rgba(186, 223, 242, 1)"></circle>
        <circle r="5" cx="361.2" cy="675.89" fill="rgba(186, 223, 242, 1)"></circle>
        <circle r="5" cx="494.59" cy="388.36" fill="rgba(186, 223, 242, 1)"></circle>
        <circle r="5" cx="561.13" cy="548.18" fill="rgba(186, 223, 242, 1)"></circle>
        <circle r="5" cx="524.54" cy="670.23" fill="rgba(186, 223, 242, 1)"></circle>
        <circle r="5" cx="694.33" cy="217.1" fill="rgba(186, 223, 242, 1)"></circle>
        <circle r="5" cx="683.5" cy="390.67" fill="rgba(186, 223, 242, 1)"></circle>
        <circle r="5" cx="648.9" cy="513.41" fill="rgba(186, 223, 242, 1)"></circle>
        <circle r="5" cx="671.47" cy="688.24" fill="rgba(186, 223, 242, 1)"></circle>
        <circle r="5" cx="855.11" cy="92.79" fill="rgba(186, 223, 242, 1)"></circle>
        <circle r="5" cx="853.05" cy="255.6" fill="rgba(186, 223, 242, 1)"></circle>
        <circle r="5" cx="797.76" cy="393.26" fill="rgba(186, 223, 242, 1)"></circle>
        <circle r="5" cx="849.38" cy="533.69" fill="rgba(186, 223, 242, 1)"></circle>
        <circle r="5" cx="829.09" cy="701.78" fill="rgba(186, 223, 242, 1)"></circle>
        <circle r="5" cx="979.7" cy="-70.06" fill="rgba(186, 223, 242, 1)"></circle>
        <circle r="5" cx="984.66" cy="47.96" fill="rgba(186, 223, 242, 1)"></circle>
        <circle r="5" cx="978.98" cy="251.62" fill="rgba(186, 223, 242, 1)"></circle>
        <circle r="5" cx="963.66" cy="389.16" fill="rgba(186, 223, 242, 1)"></circle>
        <circle r="5" cx="990.97" cy="551.49" fill="rgba(186, 223, 242, 1)"></circle>
        <circle r="5" cx="945.12" cy="655.04" fill="rgba(186, 223, 242, 1)"></circle>
        <circle r="5" cx="1117.57" cy="-84.26" fill="rgba(186, 223, 242, 1)"></circle>
        <circle r="5" cx="1100.4" cy="100.31" fill="rgba(186, 223, 242, 1)"></circle>
        <circle r="5" cx="1143.03" cy="232.66" fill="rgba(186, 223, 242, 1)"></circle>
        <circle r="5" cx="1108.98" cy="343.3" fill="rgba(186, 223, 242, 1)"></circle>
        <circle r="5" cx="1127.91" cy="525.46" fill="rgba(186, 223, 242, 1)"></circle>
        <circle r="5" cx="1137.3" cy="669.5" fill="rgba(186, 223, 242, 1)"></circle>
        <circle r="5" cx="1254.69" cy="-75.3" fill="rgba(186, 223, 242, 1)"></circle>
        <circle r="5" cx="1266.25" cy="95.8" fill="rgba(186, 223, 242, 1)"></circle>
        <circle r="5" cx="1302.36" cy="209.67" fill="rgba(186, 223, 242, 1)"></circle>
        <circle r="5" cx="1252.34" cy="342.13" fill="rgba(186, 223, 242, 1)"></circle>
        <circle r="5" cx="1274.48" cy="519.92" fill="rgba(186, 223, 242, 1)"></circle>
        <circle r="5" cx="1248.03" cy="656.81" fill="rgba(186, 223, 242, 1)"></circle>
        <circle r="5" cx="1426.29" cy="-46.07" fill="rgba(186, 223, 242, 1)"></circle>
        <circle r="5" cx="1405.6" cy="99.49" fill="rgba(186, 223, 242, 1)"></circle>
        <circle r="5" cx="1450.2" cy="251.89" fill="rgba(186, 223, 242, 1)"></circle>
        <circle r="5" cx="1452.99" cy="386.07" fill="rgba(186, 223, 242, 1)"></circle>
        <circle r="5" cx="1442.54" cy="686.25" fill="rgba(186, 223, 242, 1)"></circle>
        <circle r="5" cx="1580.57" cy="-81.53" fill="rgba(186, 223, 242, 1)"></circle>
        <circle r="5" cx="1556.64" cy="99.85" fill="rgba(186, 223, 242, 1)"></circle>
        <circle r="5" cx="1589.67" cy="204.15" fill="rgba(186, 223, 242, 1)"></circle>
        <circle r="5" cx="1546.09" cy="338.23" fill="rgba(186, 223, 242, 1)"></circle>
        <circle r="5" cx="1545.01" cy="488.58" fill="rgba(186, 223, 242, 1)"></circle>
        <circle r="5" cx="1564.85" cy="644.34" fill="rgba(186, 223, 242, 1)"></circle>
        <path d="M88.95 670.64L88.95 670.64" stroke="hsl(45.19999999999999, 98.4%, 66%)" stroke-width="1.5"></path>
        <path d="M88.95 670.64L239.04 696.76" stroke="hsl(45.19999999999999, 98.4%, 66%)" stroke-width="1.5"></path>
        <path d="M88.95 670.64L93.41 497.58" stroke="hsl(45.19999999999999, 98.4%, 66%)" stroke-width="1.5"></path>
        <path d="M88.95 670.64L-93.36 640.11" stroke="hsl(45.19999999999999, 98.4%, 66%)" stroke-width="1.5"></path>
        <path d="M88.95 670.64L205.62 494.97" stroke="hsl(45.19999999999999, 98.4%, 66%)" stroke-width="1.5"></path>
        <path d="M88.95 670.64L-71.15 520.13" stroke="hsl(45.19999999999999, 98.4%, 66%)" stroke-width="1.5"></path>
        <path d="M88.95 670.64L360.6 695.23" stroke="hsl(45.19999999999999, 98.4%, 66%)" stroke-width="1.5"></path>
        <path d="M360.6 695.23L360.6 695.23" stroke="hsl(45.19999999999999, 98.4%, 66%)" stroke-width="1.5"></path>
        <path d="M360.6 695.23L239.04 696.76" stroke="hsl(45.19999999999999, 98.4%, 66%)" stroke-width="1.5"></path>
        <path d="M360.6 695.23L358.72 511.98" stroke="hsl(45.19999999999999, 98.4%, 66%)" stroke-width="1.5"></path>
        <path d="M360.6 695.23L550.21 554.46" stroke="hsl(45.19999999999999, 98.4%, 66%)" stroke-width="1.5"></path>
        <path d="M667.99 507.51L667.99 507.51" stroke="hsl(45.19999999999999, 98.4%, 66%)" stroke-width="1.5"></path>
        <path d="M667.99 507.51L550.21 554.46" stroke="hsl(45.19999999999999, 98.4%, 66%)" stroke-width="1.5"></path>
        <path d="M667.99 507.51L666.95 379.99" stroke="hsl(45.19999999999999, 98.4%, 66%)" stroke-width="1.5"></path>
        <path d="M667.99 507.51L800.24 520.45" stroke="hsl(45.19999999999999, 98.4%, 66%)" stroke-width="1.5"></path>
        <path d="M667.99 507.51L643.36 674.28" stroke="hsl(45.19999999999999, 98.4%, 66%)" stroke-width="1.5"></path>
        <path d="M667.99 507.51L862.42 370.37" stroke="hsl(45.19999999999999, 98.4%, 66%)" stroke-width="1.5"></path>
        <path d="M667.99 507.51L850.85 665.79" stroke="hsl(45.19999999999999, 98.4%, 66%)" stroke-width="1.5"></path>
        <path d="M643.36 674.28L643.36 674.28" stroke="hsl(45.19999999999999, 98.4%, 66%)" stroke-width="1.5"></path>
        <path d="M643.36 674.28L550.21 554.46" stroke="hsl(45.19999999999999, 98.4%, 66%)" stroke-width="1.5"></path>
        <path d="M800.24 520.45L800.24 520.45" stroke="hsl(45.19999999999999, 98.4%, 66%)" stroke-width="1.5"></path>
        <path d="M800.24 520.45L947.98 503.39" stroke="hsl(45.19999999999999, 98.4%, 66%)" stroke-width="1.5"></path>
        <path d="M800.24 520.45L850.85 665.79" stroke="hsl(45.19999999999999, 98.4%, 66%)" stroke-width="1.5"></path>
        <path d="M800.24 520.45L862.42 370.37" stroke="hsl(45.19999999999999, 98.4%, 66%)" stroke-width="1.5"></path>
        <path d="M800.24 520.45L666.95 379.99" stroke="hsl(45.19999999999999, 98.4%, 66%)" stroke-width="1.5"></path>
        <path d="M800.24 520.45L643.36 674.28" stroke="hsl(45.19999999999999, 98.4%, 66%)" stroke-width="1.5"></path>
        <path d="M1123.48 383.43L1123.48 383.43" stroke="hsl(45.19999999999999, 98.4%, 66%)" stroke-width="1.5"></path>
        <path d="M1123.48 383.43L1151.57 516.24" stroke="hsl(45.19999999999999, 98.4%, 66%)" stroke-width="1.5"></path>
        <path d="M1123.48 383.43L988.52 359.29" stroke="hsl(45.19999999999999, 98.4%, 66%)" stroke-width="1.5"></path>
        <path d="M1123.48 383.43L1093.91 246.87" stroke="hsl(45.19999999999999, 98.4%, 66%)" stroke-width="1.5"></path>
        <path d="M1123.48 383.43L1269.35 384.68" stroke="hsl(45.19999999999999, 98.4%, 66%)" stroke-width="1.5"></path>
        <path d="M1123.48 383.43L1008.9 260.77" stroke="hsl(45.19999999999999, 98.4%, 66%)" stroke-width="1.5"></path>
        <path d="M1123.48 383.43L947.98 503.39" stroke="hsl(45.19999999999999, 98.4%, 66%)" stroke-width="1.5"></path>
        <path d="M1289.57 -50.52L1289.57 -50.52" stroke="hsl(45.19999999999999, 98.4%, 66%)" stroke-width="1.5"></path>
        <path d="M1289.57 -50.52L1281.81 70.62" stroke="hsl(45.19999999999999, 98.4%, 66%)" stroke-width="1.5"></path>
        <path d="M1289.57 -50.52L1417.06 -59.17" stroke="hsl(45.19999999999999, 98.4%, 66%)" stroke-width="1.5"></path>
        <path d="M1289.57 -50.52L1162.25 63.13" stroke="hsl(45.19999999999999, 98.4%, 66%)" stroke-width="1.5"></path>
        <path d="M1289.57 -50.52L1443.79 70.52" stroke="hsl(45.19999999999999, 98.4%, 66%)" stroke-width="1.5"></path>
        <path d="M1440.86 505.89L1440.86 505.89" stroke="hsl(45.19999999999999, 98.4%, 66%)" stroke-width="1.5"></path>
        <path d="M1440.86 505.89L1537.61 510.01" stroke="hsl(45.19999999999999, 98.4%, 66%)" stroke-width="1.5"></path>
        <path d="M1440.86 505.89L1391.58 410.26" stroke="hsl(45.19999999999999, 98.4%, 66%)" stroke-width="1.5"></path>
        <path d="M1440.86 505.89L1310.13 536.5" stroke="hsl(45.19999999999999, 98.4%, 66%)" stroke-width="1.5"></path>
        <path d="M1537.61 510.01L1537.61 510.01" stroke="hsl(45.19999999999999, 98.4%, 66%)" stroke-width="1.5"></path>
        <path d="M1537.61 510.01L1596.67 384.8" stroke="hsl(45.19999999999999, 98.4%, 66%)" stroke-width="1.5"></path>
        <path d="M1537.61 510.01L1585.28 651.89" stroke="hsl(45.19999999999999, 98.4%, 66%)" stroke-width="1.5"></path>
        <path d="M1537.61 510.01L1391.58 410.26" stroke="hsl(45.19999999999999, 98.4%, 66%)" stroke-width="1.5"></path>
        <path d="M1537.61 510.01L1416.55 646.54" stroke="hsl(45.19999999999999, 98.4%, 66%)" stroke-width="1.5"></path>
        <path d="M-71.15 520.13L-71.15 520.13" stroke="hsl(45.19999999999999, 98.4%, 66%)" stroke-width="1.5"></path>
        <path d="M-71.15 520.13L-93.36 640.11" stroke="hsl(45.19999999999999, 98.4%, 66%)" stroke-width="1.5"></path>
        <path d="M-71.15 520.13L93.41 497.58" stroke="hsl(45.19999999999999, 98.4%, 66%)" stroke-width="1.5"></path>
        <path d="M-93.36 640.11L-93.36 640.11" stroke="hsl(45.19999999999999, 98.4%, 66%)" stroke-width="1.5"></path>
        <path d="M-93.36 640.11L93.41 497.58" stroke="hsl(45.19999999999999, 98.4%, 66%)" stroke-width="1.5"></path>
        <path d="M93.41 497.58L93.41 497.58" stroke="hsl(45.19999999999999, 98.4%, 66%)" stroke-width="1.5"></path>
        <path d="M93.41 497.58L205.62 494.97" stroke="hsl(45.19999999999999, 98.4%, 66%)" stroke-width="1.5"></path>
        <path d="M205.62 494.97L205.62 494.97" stroke="hsl(45.19999999999999, 98.4%, 66%)" stroke-width="1.5"></path>
        <path d="M205.62 494.97L358.72 511.98" stroke="hsl(45.19999999999999, 98.4%, 66%)" stroke-width="1.5"></path>
        <path d="M205.62 494.97L239.04 696.76" stroke="hsl(45.19999999999999, 98.4%, 66%)" stroke-width="1.5"></path>
        <path d="M205.62 494.97L360.6 695.23" stroke="hsl(45.19999999999999, 98.4%, 66%)" stroke-width="1.5"></path>
        <path d="M239.04 696.76L239.04 696.76" stroke="hsl(45.19999999999999, 98.4%, 66%)" stroke-width="1.5"></path>
        <path d="M358.72 511.98L358.72 511.98" stroke="hsl(45.19999999999999, 98.4%, 66%)" stroke-width="1.5"></path>
        <path d="M550.21 554.46L550.21 554.46" stroke="hsl(45.19999999999999, 98.4%, 66%)" stroke-width="1.5"></path>
        <path d="M550.21 554.46L358.72 511.98" stroke="hsl(45.19999999999999, 98.4%, 66%)" stroke-width="1.5"></path>
        <path d="M550.21 554.46L666.95 379.99" stroke="hsl(45.19999999999999, 98.4%, 66%)" stroke-width="1.5"></path>
        <path d="M666.95 379.99L666.95 379.99" stroke="hsl(45.19999999999999, 98.4%, 66%)" stroke-width="1.5"></path>
        <path d="M862.42 370.37L862.42 370.37" stroke="hsl(45.19999999999999, 98.4%, 66%)" stroke-width="1.5"></path>
        <path d="M862.42 370.37L988.52 359.29" stroke="hsl(45.19999999999999, 98.4%, 66%)" stroke-width="1.5"></path>
        <path d="M862.42 370.37L947.98 503.39" stroke="hsl(45.19999999999999, 98.4%, 66%)" stroke-width="1.5"></path>
        <path d="M862.42 370.37L1008.9 260.77" stroke="hsl(45.19999999999999, 98.4%, 66%)" stroke-width="1.5"></path>
        <path d="M862.42 370.37L666.95 379.99" stroke="hsl(45.19999999999999, 98.4%, 66%)" stroke-width="1.5"></path>
        <path d="M850.85 665.79L850.85 665.79" stroke="hsl(45.19999999999999, 98.4%, 66%)" stroke-width="1.5"></path>
        <path d="M850.85 665.79L994.59 665.09" stroke="hsl(45.19999999999999, 98.4%, 66%)" stroke-width="1.5"></path>
        <path d="M1008.9 260.77L1008.9 260.77" stroke="hsl(45.19999999999999, 98.4%, 66%)" stroke-width="1.5"></path>
        <path d="M1008.9 260.77L1093.91 246.87" stroke="hsl(45.19999999999999, 98.4%, 66%)" stroke-width="1.5"></path>
        <path d="M1008.9 260.77L988.52 359.29" stroke="hsl(45.19999999999999, 98.4%, 66%)" stroke-width="1.5"></path>
        <path d="M988.52 359.29L988.52 359.29" stroke="hsl(45.19999999999999, 98.4%, 66%)" stroke-width="1.5"></path>
        <path d="M988.52 359.29L947.98 503.39" stroke="hsl(45.19999999999999, 98.4%, 66%)" stroke-width="1.5"></path>
        <path d="M988.52 359.29L1093.91 246.87" stroke="hsl(45.19999999999999, 98.4%, 66%)" stroke-width="1.5"></path>
        <path d="M947.98 503.39L947.98 503.39" stroke="hsl(45.19999999999999, 98.4%, 66%)" stroke-width="1.5"></path>
        <path d="M947.98 503.39L994.59 665.09" stroke="hsl(45.19999999999999, 98.4%, 66%)" stroke-width="1.5"></path>
        <path d="M994.59 665.09L994.59 665.09" stroke="hsl(45.19999999999999, 98.4%, 66%)" stroke-width="1.5"></path>
        <path d="M994.59 665.09L1151.59 638.11" stroke="hsl(45.19999999999999, 98.4%, 66%)" stroke-width="1.5"></path>
        <path d="M994.59 665.09L1151.57 516.24" stroke="hsl(45.19999999999999, 98.4%, 66%)" stroke-width="1.5"></path>
        <path d="M1162.25 63.13L1162.25 63.13" stroke="hsl(45.19999999999999, 98.4%, 66%)" stroke-width="1.5"></path>
        <path d="M1162.25 63.13L1281.81 70.62" stroke="hsl(45.19999999999999, 98.4%, 66%)" stroke-width="1.5"></path>
        <path d="M1162.25 63.13L1093.91 246.87" stroke="hsl(45.19999999999999, 98.4%, 66%)" stroke-width="1.5"></path>
        <path d="M1162.25 63.13L1295.66 240.56" stroke="hsl(45.19999999999999, 98.4%, 66%)" stroke-width="1.5"></path>
        <path d="M1093.91 246.87L1093.91 246.87" stroke="hsl(45.19999999999999, 98.4%, 66%)" stroke-width="1.5"></path>
        <path d="M1151.57 516.24L1151.57 516.24" stroke="hsl(45.19999999999999, 98.4%, 66%)" stroke-width="1.5"></path>
        <path d="M1151.57 516.24L1151.59 638.11" stroke="hsl(45.19999999999999, 98.4%, 66%)" stroke-width="1.5"></path>
        <path d="M1151.57 516.24L1310.13 536.5" stroke="hsl(45.19999999999999, 98.4%, 66%)" stroke-width="1.5"></path>
        <path d="M1151.57 516.24L1269.35 384.68" stroke="hsl(45.19999999999999, 98.4%, 66%)" stroke-width="1.5"></path>
        <path d="M1151.57 516.24L947.98 503.39" stroke="hsl(45.19999999999999, 98.4%, 66%)" stroke-width="1.5"></path>
        <path d="M1151.59 638.11L1151.59 638.11" stroke="hsl(45.19999999999999, 98.4%, 66%)" stroke-width="1.5"></path>
        <path d="M1281.81 70.62L1281.81 70.62" stroke="hsl(45.19999999999999, 98.4%, 66%)" stroke-width="1.5"></path>
        <path d="M1295.66 240.56L1295.66 240.56" stroke="hsl(45.19999999999999, 98.4%, 66%)" stroke-width="1.5"></path>
        <path d="M1295.66 240.56L1269.35 384.68" stroke="hsl(45.19999999999999, 98.4%, 66%)" stroke-width="1.5"></path>
        <path d="M1295.66 240.56L1460.7 212.55" stroke="hsl(45.19999999999999, 98.4%, 66%)" stroke-width="1.5"></path>
        <path d="M1295.66 240.56L1281.81 70.62" stroke="hsl(45.19999999999999, 98.4%, 66%)" stroke-width="1.5"></path>
        <path d="M1295.66 240.56L1391.58 410.26" stroke="hsl(45.19999999999999, 98.4%, 66%)" stroke-width="1.5"></path>
        <path d="M1269.35 384.68L1269.35 384.68" stroke="hsl(45.19999999999999, 98.4%, 66%)" stroke-width="1.5"></path>
        <path d="M1269.35 384.68L1391.58 410.26" stroke="hsl(45.19999999999999, 98.4%, 66%)" stroke-width="1.5"></path>
        <path d="M1269.35 384.68L1310.13 536.5" stroke="hsl(45.19999999999999, 98.4%, 66%)" stroke-width="1.5"></path>
        <path d="M1269.35 384.68L1440.86 505.89" stroke="hsl(45.19999999999999, 98.4%, 66%)" stroke-width="1.5"></path>
        <path d="M1310.13 536.5L1310.13 536.5" stroke="hsl(45.19999999999999, 98.4%, 66%)" stroke-width="1.5"></path>
        <path d="M1310.13 536.5L1391.58 410.26" stroke="hsl(45.19999999999999, 98.4%, 66%)" stroke-width="1.5"></path>
        <path d="M1310.13 536.5L1416.55 646.54" stroke="hsl(45.19999999999999, 98.4%, 66%)" stroke-width="1.5"></path>
        <path d="M1417.06 -59.17L1417.06 -59.17" stroke="hsl(45.19999999999999, 98.4%, 66%)" stroke-width="1.5"></path>
        <path d="M1417.06 -59.17L1443.79 70.52" stroke="hsl(45.19999999999999, 98.4%, 66%)" stroke-width="1.5"></path>
        <path d="M1417.06 -59.17L1585.33 -107.34" stroke="hsl(45.19999999999999, 98.4%, 66%)" stroke-width="1.5"></path>
        <path d="M1443.79 70.52L1443.79 70.52" stroke="hsl(45.19999999999999, 98.4%, 66%)" stroke-width="1.5"></path>
        <path d="M1443.79 70.52L1460.7 212.55" stroke="hsl(45.19999999999999, 98.4%, 66%)" stroke-width="1.5"></path>
        <path d="M1443.79 70.52L1281.81 70.62" stroke="hsl(45.19999999999999, 98.4%, 66%)" stroke-width="1.5"></path>
        <path d="M1443.79 70.52L1571.98 226.64" stroke="hsl(45.19999999999999, 98.4%, 66%)" stroke-width="1.5"></path>
        <path d="M1443.79 70.52L1295.66 240.56" stroke="hsl(45.19999999999999, 98.4%, 66%)" stroke-width="1.5"></path>
        <path d="M1460.7 212.55L1460.7 212.55" stroke="hsl(45.19999999999999, 98.4%, 66%)" stroke-width="1.5"></path>
        <path d="M1460.7 212.55L1571.98 226.64" stroke="hsl(45.19999999999999, 98.4%, 66%)" stroke-width="1.5"></path>
        <path d="M1391.58 410.26L1391.58 410.26" stroke="hsl(45.19999999999999, 98.4%, 66%)" stroke-width="1.5"></path>
        <path d="M1416.55 646.54L1416.55 646.54" stroke="hsl(45.19999999999999, 98.4%, 66%)" stroke-width="1.5"></path>
        <path d="M1416.55 646.54L1440.86 505.89" stroke="hsl(45.19999999999999, 98.4%, 66%)" stroke-width="1.5"></path>
        <path d="M1416.55 646.54L1585.28 651.89" stroke="hsl(45.19999999999999, 98.4%, 66%)" stroke-width="1.5"></path>
        <path d="M1585.33 -107.34L1585.33 -107.34" stroke="hsl(45.19999999999999, 98.4%, 66%)" stroke-width="1.5"></path>
        <path d="M1585.33 -107.34L1443.79 70.52" stroke="hsl(45.19999999999999, 98.4%, 66%)" stroke-width="1.5"></path>
        <path d="M1585.33 -107.34L1289.57 -50.52" stroke="hsl(45.19999999999999, 98.4%, 66%)" stroke-width="1.5"></path>
        <path d="M1585.33 -107.34L1571.98 226.64" stroke="hsl(45.19999999999999, 98.4%, 66%)" stroke-width="1.5"></path>
        <path d="M1585.33 -107.34L1460.7 212.55" stroke="hsl(45.19999999999999, 98.4%, 66%)" stroke-width="1.5"></path>
        <path d="M1571.98 226.64L1571.98 226.64" stroke="hsl(45.19999999999999, 98.4%, 66%)" stroke-width="1.5"></path>
        <path d="M1571.98 226.64L1596.67 384.8" stroke="hsl(45.19999999999999, 98.4%, 66%)" stroke-width="1.5"></path>
        <path d="M1596.67 384.8L1596.67 384.8" stroke="hsl(45.19999999999999, 98.4%, 66%)" stroke-width="1.5"></path>
        <path d="M1596.67 384.8L1440.86 505.89" stroke="hsl(45.19999999999999, 98.4%, 66%)" stroke-width="1.5"></path>
        <path d="M1596.67 384.8L1391.58 410.26" stroke="hsl(45.19999999999999, 98.4%, 66%)" stroke-width="1.5"></path>
        <path d="M1596.67 384.8L1460.7 212.55" stroke="hsl(45.19999999999999, 98.4%, 66%)" stroke-width="1.5"></path>
        <path d="M1585.28 651.89L1585.28 651.89" stroke="hsl(45.19999999999999, 98.4%, 66%)" stroke-width="1.5"></path>
        <circle r="25" cx="88.95" cy="670.64" fill="url(#SvgjsRadialGradient1013)"></circle>
        <circle r="25" cx="360.6" cy="695.23" fill="url(#SvgjsRadialGradient1013)"></circle>
        <circle r="25" cx="667.99" cy="507.51" fill="url(#SvgjsRadialGradient1013)"></circle>
        <circle r="25" cx="643.36" cy="674.28" fill="url(#SvgjsRadialGradient1013)"></circle>
        <circle r="25" cx="800.24" cy="520.45" fill="url(#SvgjsRadialGradient1013)"></circle>
        <circle r="25" cx="1123.48" cy="383.43" fill="url(#SvgjsRadialGradient1013)"></circle>
        <circle r="25" cx="1289.57" cy="-50.52" fill="url(#SvgjsRadialGradient1013)"></circle>
        <circle r="25" cx="1440.86" cy="505.89" fill="url(#SvgjsRadialGradient1013)"></circle>
        <circle r="25" cx="1537.61" cy="510.01" fill="url(#SvgjsRadialGradient1013)"></circle>
        <circle r="5" cx="-71.15" cy="520.13" fill="#fee083"></circle>
        <circle r="5" cx="-93.36" cy="640.11" fill="#fee083"></circle>
        <circle r="5" cx="93.41" cy="497.58" fill="#fee083"></circle>
        <circle r="5" cx="205.62" cy="494.97" fill="#fee083"></circle>
        <circle r="5" cx="239.04" cy="696.76" fill="#fee083"></circle>
        <circle r="5" cx="358.72" cy="511.98" fill="#fee083"></circle>
        <circle r="5" cx="550.21" cy="554.46" fill="#fee083"></circle>
        <circle r="5" cx="666.95" cy="379.99" fill="#fee083"></circle>
        <circle r="5" cx="862.42" cy="370.37" fill="#fee083"></circle>
        <circle r="5" cx="850.85" cy="665.79" fill="#fee083"></circle>
        <circle r="5" cx="1008.9" cy="260.77" fill="#fee083"></circle>
        <circle r="5" cx="988.52" cy="359.29" fill="#fee083"></circle>
        <circle r="5" cx="947.98" cy="503.39" fill="#fee083"></circle>
        <circle r="5" cx="994.59" cy="665.09" fill="#fee083"></circle>
        <circle r="5" cx="1162.25" cy="63.13" fill="#fee083"></circle>
        <circle r="5" cx="1093.91" cy="246.87" fill="#fee083"></circle>
        <circle r="5" cx="1151.57" cy="516.24" fill="#fee083"></circle>
        <circle r="5" cx="1151.59" cy="638.11" fill="#fee083"></circle>
        <circle r="5" cx="1281.81" cy="70.62" fill="#fee083"></circle>
        <circle r="5" cx="1295.66" cy="240.56" fill="#fee083"></circle>
        <circle r="5" cx="1269.35" cy="384.68" fill="#fee083"></circle>
        <circle r="5" cx="1310.13" cy="536.5" fill="#fee083"></circle>
        <circle r="5" cx="1417.06" cy="-59.17" fill="#fee083"></circle>
        <circle r="5" cx="1443.79" cy="70.52" fill="#fee083"></circle>
        <circle r="5" cx="1460.7" cy="212.55" fill="#fee083"></circle>
        <circle r="5" cx="1391.58" cy="410.26" fill="#fee083"></circle>
        <circle r="5" cx="1416.55" cy="646.54" fill="#fee083"></circle>
        <circle r="5" cx="1585.33" cy="-107.34" fill="#fee083"></circle>
        <circle r="5" cx="1571.98" cy="226.64" fill="#fee083"></circle>
        <circle r="5" cx="1596.67" cy="384.8" fill="#fee083"></circle>
        <circle r="5" cx="1585.28" cy="651.89" fill="#fee083"></circle>
    </g>
    <defs>
        <mask id="SvgjsMask1012">
            <rect width="1440" height="560" fill="#ffffff"></rect>
        </mask>
        <radialGradient id="SvgjsRadialGradient1013">
            <stop stop-color="#ffffff" offset="0.1"></stop>
            <stop stop-color="rgba(253, 192, 6, 1)" offset="0.2"></stop>
            <stop stop-color="rgba(253, 192, 6, 0)" offset="1"></stop>
        </radialGradient>
    </defs>
</svg>